# xmcd CD database file
#
# Track frame offsets:
#       182
#       5957
#       42332
#       44807
#       58157
#       61382
#       84032
#       91682
#       116357
#       122957
#       149432
#       152057
#       180107
#       187457
#       221282
#       227207
#       257282
#       263657
#       298382
#
# Disc length: 4055 seconds
#
# Revision: 2
# Processed by: cddbd v1.5.2PL0 Copyright (c) Steve Scherf et al.
# Submitted via: CDDBEditor PBVER-PBREV
#
DISCID=150fd513
DTITLE=Musica Antiqua Koln - Sonata Pro Tabula
DYEAR=1996
DGENRE=Classical
TTITLE0=Heinrich Ignaz Franz Biber (1644-1704) - A Due No 1
TTITLE1=Giovanni Valentini (1583-1649) - Sonata Pro Tabula C-Dur
TTITLE2=Heinrich Ignaz Franz Biber (1644-1704) - A Due No 5
TTITLE3=Antonio Bertali (1605-1669) - Sonatella G-Dur
TTITLE4=Heinrich Ignaz Franz Biber (1644-1704) - A Due No 6
TTITLE5=Johann Heinrich Schmelzer (1623-1680) - Sonata A Doi Chori G-Dur
TTITLE6=Heinrich Ignaz Franz Biber (1644-1704) - A Due No 10
TTITLE7=Johann Heinrich Schmelzer (1623-1680) - Sonata Per Chiesa E Per Camera
TTITLE8=Heinrich Ignaz Franz Biber (1644-1704) - A Due No 3
TTITLE9=Johann Heinrich Schmelzer (1623-1680) - Sonata G-Dur
TTITLE10=Heinrich Ignaz Franz Biber (1644-1704) - A Due No 8
TTITLE11=Johann Heinrich Schmelzer (1623-1680) - Sonata Ad Tabulam G-Dur
TTITLE12=Heinrich Ignaz Franz Biber (1644-1704) - A Due No 4
TTITLE13=Anonymous - Sonata C-Dur
TTITLE14=Heinrich Ignaz Franz Biber (1644-1704) - A Due No 11
TTITLE15=Johann Christoph Pezel (1639-1694) - Sonata D-Dur
TTITLE16=Heinrich Ignaz Franz Biber (1644-1704) - A Due No 12
TTITLE17=Heinrich Ignaz Franz Biber (1644-1704) - Sonata Pro Tabula C-Dur
TTITLE18=Heinrich Ignaz Franz Biber (1644-1704) - A Due No 19
EXTD=
EXTT0=
EXTT1=
EXTT2=
EXTT3=
EXTT4=
EXTT5=
EXTT6=
EXTT7=
EXTT8=
EXTT9=
EXTT10=
EXTT11=
EXTT12=
EXTT13=
EXTT14=
EXTT15=
EXTT16=
EXTT17=
EXTT18=
PLAYORDER=
